<?xml version="1.0" encoding="UTF-8" standalone="no"?>
<!DOCTYPE svg PUBLIC "-//W3C//DTD SVG 1.1//EN" "http://www.w3.org/Graphics/SVG/1.1/DTD/svg11.dtd">
<svg xmlns="http://www.w3.org/2000/svg" version="1.1" viewBox="0.00 0.00 100.00 100.00">
<g stroke-width="2.00" fill="none" stroke-linecap="butt">
<path stroke="#84d2f4" vector-effect="non-scaling-stroke" d="
  M 15.68 26.14
  C 14.79 11.72 30.62 16.34 37.71 19.91
  A 1.84 1.84 0.0 0 0 40.37 18.12
  Q 40.27 16.85 39.07 16.40
  C 34.13 14.59 30.40 12.81 24.99 12.58
  C 8.33 11.88 10.53 29.86 15.51 39.45
  Q 30.72 68.69 59.71 83.86
  C 66.74 87.54 79.67 90.90 85.13 82.86
  C 89.74 76.08 85.85 67.11 83.17 60.48
  Q 82.76 59.48 81.72 59.30
  A 1.91 1.91 0.0 0 0 79.74 62.13
  C 83.28 68.33 87.54 85.06 74.25 83.94
  Q 67.12 83.34 63.51 81.54
  Q 32.94 66.36 18.30 36.58
  Q 16.04 31.99 15.68 26.14"
/>
<path stroke="#a8a8ad" vector-effect="non-scaling-stroke" d="
  M 62.10 30.40
  C 72.41 36.78 76.09 50.54 71.04 61.43
  Q 67.37 69.33 58.89 73.70
  A 1.70 1.70 0.0 0 0 58.54 76.49
  Q 60.17 77.93 62.42 76.50
  Q 75.73 68.05 76.90 53.93
  C 79.54 22.26 37.80 10.43 22.84 38.45
  C 22.22 39.60 22.48 40.73 23.56 41.39
  A 1.70 1.69 29.6 0 0 25.94 40.74
  C 33.26 26.83 48.82 22.17 62.10 30.40"
/>
<path stroke="#84d2f4" vector-effect="non-scaling-stroke" d="
  M 44.10 53.48
  L 40.89 42.05
  A 0.79 0.79 0.0 0 1 41.43 41.07
  L 43.16 40.56
  A 0.43 0.43 0.0 0 0 43.04 39.72
  L 35.50 39.73
  A 0.44 0.44 0.0 0 0 35.45 40.60
  C 36.92 40.77 37.75 41.62 38.16 43.08
  Q 40.42 51.13 42.70 59.05
  A 0.76 0.75 46.4 0 0 44.14 59.09
  L 48.82 45.28
  A 0.33 0.33 0.0 0 1 49.44 45.29
  L 53.88 59.04
  A 0.82 0.82 0.0 0 0 55.44 59.03
  L 60.60 42.28
  A 1.38 1.33 -6.4 0 1 61.27 41.47
  L 63.19 40.45
  A 0.41 0.41 0.0 0 0 63.00 39.68
  L 56.46 39.72
  A 0.48 0.48 0.0 0 0 56.35 40.66
  L 58.35 41.17
  A 0.84 0.84 0.0 0 1 58.95 42.21
  L 55.81 53.73
  A 0.35 0.35 0.0 0 1 55.14 53.74
  L 50.83 40.50
  A 0.76 0.75 -86.4 0 0 50.44 40.05
  Q 49.53 39.57 49.17 40.60
  Q 46.88 47.09 44.67 53.50
  A 0.30 0.30 0.0 0 1 44.10 53.48"
/>
<path stroke="#a8a8ad" vector-effect="non-scaling-stroke" d="
  M 41.32 74.81
  C 32.91 72.14 26.76 65.68 24.40 57.02
  A 0.94 0.93 2.0 0 0 23.79 56.38
  Q 22.06 55.84 21.19 57.21
  A 1.82 1.81 -37.6 0 0 20.99 58.72
  Q 25.44 73.16 39.72 78.29
  C 40.90 78.71 42.04 78.55 42.52 77.33
  A 1.92 1.91 -70.5 0 0 41.32 74.81"
/>
</g>
<path fill="#ffffff" d="
  M 23.91 0.00
  L 76.21 0.00
  Q 97.43 3.05 100.00 23.84
  L 100.00 76.25
  Q 97.15 97.29 76.13 100.00
  L 23.76 100.00
  Q 2.69 97.19 0.00 76.14
  L 0.00 23.72
  Q 2.64 2.94 23.91 0.00
  Z
  M 15.68 26.14
  C 14.79 11.72 30.62 16.34 37.71 19.91
  A 1.84 1.84 0.0 0 0 40.37 18.12
  Q 40.27 16.85 39.07 16.40
  C 34.13 14.59 30.40 12.81 24.99 12.58
  C 8.33 11.88 10.53 29.86 15.51 39.45
  Q 30.72 68.69 59.71 83.86
  C 66.74 87.54 79.67 90.90 85.13 82.86
  C 89.74 76.08 85.85 67.11 83.17 60.48
  Q 82.76 59.48 81.72 59.30
  A 1.91 1.91 0.0 0 0 79.74 62.13
  C 83.28 68.33 87.54 85.06 74.25 83.94
  Q 67.12 83.34 63.51 81.54
  Q 32.94 66.36 18.30 36.58
  Q 16.04 31.99 15.68 26.14
  Z
  M 62.10 30.40
  C 72.41 36.78 76.09 50.54 71.04 61.43
  Q 67.37 69.33 58.89 73.70
  A 1.70 1.70 0.0 0 0 58.54 76.49
  Q 60.17 77.93 62.42 76.50
  Q 75.73 68.05 76.90 53.93
  C 79.54 22.26 37.80 10.43 22.84 38.45
  C 22.22 39.60 22.48 40.73 23.56 41.39
  A 1.70 1.69 29.6 0 0 25.94 40.74
  C 33.26 26.83 48.82 22.17 62.10 30.40
  Z
  M 44.10 53.48
  L 40.89 42.05
  A 0.79 0.79 0.0 0 1 41.43 41.07
  L 43.16 40.56
  A 0.43 0.43 0.0 0 0 43.04 39.72
  L 35.50 39.73
  A 0.44 0.44 0.0 0 0 35.45 40.60
  C 36.92 40.77 37.75 41.62 38.16 43.08
  Q 40.42 51.13 42.70 59.05
  A 0.76 0.75 46.4 0 0 44.14 59.09
  L 48.82 45.28
  A 0.33 0.33 0.0 0 1 49.44 45.29
  L 53.88 59.04
  A 0.82 0.82 0.0 0 0 55.44 59.03
  L 60.60 42.28
  A 1.38 1.33 -6.4 0 1 61.27 41.47
  L 63.19 40.45
  A 0.41 0.41 0.0 0 0 63.00 39.68
  L 56.46 39.72
  A 0.48 0.48 0.0 0 0 56.35 40.66
  L 58.35 41.17
  A 0.84 0.84 0.0 0 1 58.95 42.21
  L 55.81 53.73
  A 0.35 0.35 0.0 0 1 55.14 53.74
  L 50.83 40.50
  A 0.76 0.75 -86.4 0 0 50.44 40.05
  Q 49.53 39.57 49.17 40.60
  Q 46.88 47.09 44.67 53.50
  A 0.30 0.30 0.0 0 1 44.10 53.48
  Z
  M 41.32 74.81
  C 32.91 72.14 26.76 65.68 24.40 57.02
  A 0.94 0.93 2.0 0 0 23.79 56.38
  Q 22.06 55.84 21.19 57.21
  A 1.82 1.81 -37.6 0 0 20.99 58.72
  Q 25.44 73.16 39.72 78.29
  C 40.90 78.71 42.04 78.55 42.52 77.33
  A 1.92 1.91 -70.5 0 0 41.32 74.81
  Z"
/>
<path fill="#09a4e8" d="
  M 37.71 19.91
  C 30.62 16.34 14.79 11.72 15.68 26.14
  Q 16.04 31.99 18.30 36.58
  Q 32.94 66.36 63.51 81.54
  Q 67.12 83.34 74.25 83.94
  C 87.54 85.06 83.28 68.33 79.74 62.13
  A 1.91 1.91 0.0 0 1 81.72 59.30
  Q 82.76 59.48 83.17 60.48
  C 85.85 67.11 89.74 76.08 85.13 82.86
  C 79.67 90.90 66.74 87.54 59.71 83.86
  Q 30.72 68.69 15.51 39.45
  C 10.53 29.86 8.33 11.88 24.99 12.58
  C 30.40 12.81 34.13 14.59 39.07 16.40
  Q 40.27 16.85 40.37 18.12
  A 1.84 1.84 0.0 0 1 37.71 19.91
  Z"
/>
<path fill="#51515a" d="
  M 62.10 30.40
  C 48.82 22.17 33.26 26.83 25.94 40.74
  A 1.70 1.69 29.6 0 1 23.56 41.39
  C 22.48 40.73 22.22 39.60 22.84 38.45
  C 37.80 10.43 79.54 22.26 76.90 53.93
  Q 75.73 68.05 62.42 76.50
  Q 60.17 77.93 58.54 76.49
  A 1.70 1.70 0.0 0 1 58.89 73.70
  Q 67.37 69.33 71.04 61.43
  C 76.09 50.54 72.41 36.78 62.10 30.40
  Z"
/>
<path fill="#09a4e8" d="
  M 44.10 53.48
  A 0.30 0.30 0.0 0 0 44.67 53.50
  Q 46.88 47.09 49.17 40.60
  Q 49.53 39.57 50.44 40.05
  A 0.76 0.75 -86.4 0 1 50.83 40.50
  L 55.14 53.74
  A 0.35 0.35 0.0 0 0 55.81 53.73
  L 58.95 42.21
  A 0.84 0.84 0.0 0 0 58.35 41.17
  L 56.35 40.66
  A 0.48 0.48 0.0 0 1 56.46 39.72
  L 63.00 39.68
  A 0.41 0.41 0.0 0 1 63.19 40.45
  L 61.27 41.47
  A 1.38 1.33 -6.4 0 0 60.60 42.28
  L 55.44 59.03
  A 0.82 0.82 0.0 0 1 53.88 59.04
  L 49.44 45.29
  A 0.33 0.33 0.0 0 0 48.82 45.28
  L 44.14 59.09
  A 0.76 0.75 46.4 0 1 42.70 59.05
  Q 40.42 51.13 38.16 43.08
  C 37.75 41.62 36.92 40.77 35.45 40.60
  A 0.44 0.44 0.0 0 1 35.50 39.73
  L 43.04 39.72
  A 0.43 0.43 0.0 0 1 43.16 40.56
  L 41.43 41.07
  A 0.79 0.79 0.0 0 0 40.89 42.05
  L 44.10 53.48
  Z"
/>
<path fill="#51515a" d="
  M 24.40 57.02
  C 26.76 65.68 32.91 72.14 41.32 74.81
  A 1.92 1.91 -70.5 0 1 42.52 77.33
  C 42.04 78.55 40.90 78.71 39.72 78.29
  Q 25.44 73.16 20.99 58.72
  A 1.82 1.81 -37.6 0 1 21.19 57.21
  Q 22.06 55.84 23.79 56.38
  A 0.94 0.93 2.0 0 1 24.40 57.02
  Z"
/>
</svg>
