<?xml version="1.0" encoding="UTF-8" standalone="no"?>
<!DOCTYPE svg PUBLIC "-//W3C//DTD SVG 1.1//EN" "http://www.w3.org/Graphics/SVG/1.1/DTD/svg11.dtd">
<svg xmlns="http://www.w3.org/2000/svg" version="1.1" viewBox="0.00 0.00 500.00 500.00">
<path fill="#0ea5e9" d="
  M 39.71 62.18
  C 66.85 19.85 126.52 30.52 165.09 45.55
  Q 174.21 49.10 188.38 55.40
  C 192.47 57.21 195.28 59.96 195.97 64.51
  Q 196.77 69.74 193.26 73.54
  Q 187.80 79.43 179.63 75.54
  Q 154.10 63.37 126.50 57.22
  C 111.35 53.84 89.72 52.53 74.88 59.62
  C 42.57 75.06 48.83 120.15 57.48 147.26
  C 69.93 186.33 91.36 223.29 115.53 255.95
  Q 168.52 327.57 239.13 381.89
  C 272.94 407.89 310.95 430.81 351.48 444.59
  C 375.49 452.76 418.28 461.40 437.84 438.70
  C 461.87 410.81 443.13 356.01 429.70 327.41
  Q 427.09 321.85 426.95 319.05
  C 426.47 309.46 438.26 304.11 445.30 310.72
  Q 446.95 312.26 448.78 316.09
  C 461.07 341.84 470.57 370.95 471.65 399.74
  Q 472.58 424.43 460.97 444.44
  C 451.31 461.09 432.67 471.77 413.62 474.57
  C 384.71 478.82 351.20 469.58 324.06 457.95
  Q 288.15 442.57 255.74 420.74
  C 184.00 372.40 119.87 307.79 73.58 233.23
  Q 53.51 200.91 40.17 165.28
  C 28.61 134.40 20.50 92.15 39.71 62.18
  Z"
/>
<path fill="#52525b" d="
  M 400.08 322.05
  Q 376.64 379.73 321.00 408.94
  Q 315.19 411.99 311.73 412.18
  Q 305.53 412.52 302.25 407.15
  C 298.95 401.73 300.52 394.64 306.28 391.77
  C 334.92 377.50 357.47 356.87 372.40 329.22
  C 392.80 291.44 396.39 246.39 379.98 205.93
  Q 359.14 154.54 309.95 129.11
  C 277.98 112.59 238.78 108.94 204.28 119.27
  Q 142.53 137.78 112.85 195.87
  Q 110.94 199.60 108.90 201.12
  C 100.61 207.27 89.69 199.87 91.77 189.75
  Q 92.44 186.49 97.56 177.53
  C 128.85 122.65 187.77 89.37 250.76 91.63
  C 365.77 95.77 443.81 214.43 400.08 322.05
  Z"
/>
<path fill="#0ea5e9" d="
  M 247.17 222.00
  L 217.89 307.88
  Q 217.68 308.50 217.03 308.50
  L 211.24 308.50
  Q 210.62 308.50 210.45 307.90
  Q 196.80 259.94 183.22 211.97
  Q 181.59 206.19 179.46 203.72
  Q 175.08 198.61 167.44 198.46
  A 0.48 0.48 0.0 0 1 166.97 197.98
  L 166.96 193.01
  Q 166.96 192.48 167.49 192.48
  L 213.08 192.46
  Q 213.71 192.46 213.71 193.09
  L 213.75 197.75
  A 0.59 0.58 -2.0 0 1 213.19 198.34
  Q 204.77 198.67 200.92 200.20
  C 197.83 201.43 198.85 204.55 199.72 207.64
  Q 209.54 242.71 219.83 277.98
  A 0.33 0.32 46.5 0 0 220.45 278.00
  L 248.64 194.46
  A 0.62 0.62 0.0 0 1 249.23 194.03
  L 256.24 194.08
  Q 256.67 194.09 256.80 194.49
  L 284.90 279.29
  Q 285.34 280.64 285.76 279.28
  Q 296.45 244.73 304.86 208.74
  Q 306.43 202.06 300.02 200.22
  Q 294.37 198.60 289.72 198.23
  A 0.50 0.50 0.0 0 1 289.25 197.72
  L 289.27 192.97
  Q 289.27 192.47 289.78 192.47
  L 330.49 192.48
  Q 331.00 192.48 331.00 192.99
  L 331.00 197.73
  Q 331.00 198.29 330.44 198.34
  Q 322.20 199.11 317.51 204.69
  Q 315.12 207.54 312.87 214.91
  Q 298.62 261.47 284.27 307.96
  Q 284.10 308.50 283.54 308.50
  L 277.37 308.50
  Q 276.70 308.50 276.49 307.86
  L 248.24 222.01
  Q 247.71 220.41 247.17 222.00
  Z"
/>
<path fill="#52525b" d="
  M 115.95 328.37
  Q 144.18 379.72 200.26 398.60
  Q 204.38 399.99 206.24 401.82
  C 211.19 406.68 210.34 415.07 204.50 418.77
  C 200.94 421.03 197.81 420.75 193.64 419.40
  C 140.02 402.17 98.99 359.73 83.02 305.76
  Q 79.92 295.29 88.46 290.97
  Q 91.11 289.64 93.76 289.83
  C 102.63 290.47 104.03 298.80 106.10 305.84
  C 108.13 312.79 112.19 321.54 115.95 328.37
  Z"
/>
</svg>
