<svg id="svg" version="1.1" xmlns="http://www.w3.org/2000/svg" xmlns:xlink="http://www.w3.org/1999/xlink" width="400" height="400" viewBox="0, 0, 400,400"><g id="svgg"><path id="path0" d="M190.234 73.168 C 190.127 73.278,187.578 73.569,184.570 73.814 C 178.398 74.316,174.068 74.911,167.773 76.121 C 166.020 76.458,161.534 77.606,158.398 78.521 C 157.754 78.708,156.611 79.033,155.859 79.242 C 153.401 79.926,152.006 80.409,147.852 82.015 C 146.401 82.576,145.119 83.115,139.453 85.547 C 137.842 86.239,135.645 87.293,134.570 87.890 C 133.496 88.487,131.289 89.672,129.667 90.523 C 111.438 100.085,89.467 121.475,79.810 139.063 C 78.759 140.977,77.970 142.382,76.605 144.771 C 71.470 153.757,73.057 160.736,80.550 162.121 C 85.283 162.996,87.957 161.055,91.300 154.319 C 94.962 146.940,97.419 143.170,105.469 132.576 C 110.431 126.046,126.326 112.406,134.570 107.603 C 135.645 106.977,137.051 106.150,137.695 105.764 C 145.827 100.902,163.928 94.091,172.779 92.564 C 188.771 89.805,201.243 89.699,215.625 92.201 C 223.804 93.624,230.443 95.396,236.281 97.715 C 242.073 100.016,251.100 104.331,253.330 105.866 C 254.262 106.507,255.129 107.031,255.258 107.031 C 255.619 107.031,264.797 113.232,266.992 114.960 C 288.427 131.829,304.423 157.077,309.362 181.836 C 309.619 183.125,309.977 184.883,310.159 185.742 C 312.510 196.896,312.696 215.837,310.564 227.148 C 309.535 232.607,309.086 234.611,308.027 238.477 C 305.895 246.262,301.072 257.772,296.938 264.941 C 296.474 265.747,295.728 267.052,295.281 267.841 C 285.972 284.280,266.732 302.164,248.395 311.426 C 240.353 315.487,238.329 320.282,242.233 326.024 C 245.415 330.703,250.558 330.336,260.156 324.742 C 261.123 324.179,262.441 323.415,263.086 323.045 C 284.977 310.478,305.038 288.683,315.936 265.625 C 318.842 259.478,319.314 258.420,320.121 256.250 C 320.481 255.283,320.926 254.141,321.109 253.711 C 321.533 252.716,323.563 246.448,324.209 244.141 C 324.479 243.174,324.839 241.943,325.008 241.406 C 325.641 239.400,327.135 232.323,327.919 227.624 C 329.648 217.255,329.668 198.778,327.962 188.477 C 327.855 187.832,327.575 186.074,327.340 184.570 C 326.877 181.611,326.654 180.547,325.373 175.195 C 324.415 171.190,324.315 170.843,322.480 165.191 C 320.939 160.445,319.488 156.606,318.068 153.516 C 316.367 149.814,312.622 142.429,311.363 140.294 C 310.699 139.168,310.156 138.160,310.156 138.054 C 310.156 137.760,305.599 131.037,303.160 127.734 C 296.355 118.517,285.973 107.849,277.930 101.806 C 269.848 95.736,268.559 94.837,264.327 92.325 C 255.118 86.859,242.572 81.314,233.789 78.828 C 232.285 78.403,230.439 77.881,229.688 77.670 C 228.006 77.196,226.187 76.815,218.555 75.333 C 214.932 74.630,211.936 74.244,207.227 73.873 C 200.578 73.351,190.466 72.931,190.234 73.168 M144.269 155.151 C 143.191 155.672,142.858 156.996,143.333 158.875 C 144.039 161.672,144.440 163.091,145.019 164.844 C 145.338 165.811,145.990 167.920,146.467 169.531 C 147.758 173.891,147.981 174.622,148.676 176.758 C 149.026 177.832,149.452 179.238,149.624 179.883 C 149.795 180.527,150.287 182.197,150.716 183.594 C 153.223 191.747,156.035 200.911,156.679 203.027 C 157.087 204.370,157.788 206.655,158.235 208.105 C 158.683 209.556,159.189 211.270,159.361 211.914 C 159.532 212.559,159.932 213.877,160.249 214.844 C 160.566 215.811,161.050 217.393,161.324 218.359 C 161.599 219.326,162.130 221.084,162.505 222.266 C 162.879 223.447,163.574 225.732,164.049 227.344 C 165.493 232.244,165.582 232.538,166.359 234.961 C 166.772 236.250,167.212 237.761,167.336 238.318 C 167.460 238.875,168.029 239.798,168.600 240.369 L 169.638 241.406 176.728 241.406 L 183.819 241.406 185.042 240.332 C 186.261 239.263,186.599 238.454,188.675 231.641 C 189.166 230.029,190.046 227.217,190.631 225.391 C 191.216 223.564,192.265 220.225,192.962 217.969 C 194.339 213.519,196.042 208.105,198.181 201.378 C 199.465 197.342,200.176 196.129,200.554 197.331 C 200.644 197.617,201.535 200.488,202.533 203.711 C 205.023 211.748,207.321 219.086,208.588 223.047 C 209.173 224.873,210.028 227.598,210.490 229.102 C 214.548 242.325,213.627 241.406,222.829 241.406 C 230.815 241.406,231.147 241.272,232.230 237.598 C 232.595 236.362,233.038 234.912,233.217 234.375 C 233.395 233.838,233.925 232.080,234.396 230.469 C 234.867 228.857,235.558 226.572,235.933 225.391 C 236.308 224.209,236.837 222.451,237.109 221.484 C 237.382 220.518,237.911 218.760,238.286 217.578 C 238.661 216.396,239.352 214.111,239.823 212.500 C 240.293 210.889,240.818 209.131,240.988 208.594 C 241.158 208.057,241.483 207.002,241.709 206.250 C 242.390 203.993,244.355 197.507,246.680 189.844 C 249.661 180.019,251.171 175.029,251.587 173.633 C 251.779 172.988,252.268 171.406,252.673 170.117 C 253.079 168.828,253.634 166.982,253.906 166.016 C 254.179 165.049,254.752 163.217,255.179 161.946 C 257.426 155.266,256.768 154.693,246.875 154.715 C 235.623 154.741,236.337 154.039,232.016 169.336 C 231.834 169.980,231.509 171.123,231.294 171.875 C 231.079 172.627,230.728 173.857,230.513 174.609 C 230.298 175.361,229.936 176.636,229.710 177.441 C 229.483 178.247,229.131 179.478,228.928 180.176 C 228.726 180.874,228.388 182.061,228.179 182.813 C 227.970 183.564,227.242 186.025,226.563 188.281 C 225.883 190.537,225.165 192.954,224.968 193.652 C 224.771 194.351,224.424 195.581,224.197 196.387 C 223.970 197.192,223.602 198.467,223.379 199.219 C 223.156 199.971,222.883 201.159,222.772 201.859 C 222.352 204.507,221.326 203.377,220.198 199.023 C 219.864 197.734,217.646 189.912,215.270 181.641 C 212.893 173.369,210.750 165.898,210.507 165.039 C 210.264 164.180,209.928 163.037,209.760 162.500 C 209.593 161.963,209.146 160.477,208.768 159.198 C 207.525 154.992,206.510 154.546,198.655 154.752 L 193.684 154.883 192.616 156.079 C 191.724 157.079,190.659 160.432,186.167 176.392 C 183.208 186.906,180.648 195.947,180.478 196.484 C 180.308 197.021,179.956 198.252,179.695 199.219 C 178.727 202.813,177.344 204.739,177.344 202.492 C 177.344 202.169,176.713 199.763,175.943 197.144 C 175.172 194.525,174.381 191.812,174.185 191.113 C 173.989 190.415,173.652 189.229,173.438 188.477 C 173.223 187.725,172.861 186.450,172.634 185.645 C 172.109 183.780,171.541 181.792,171.072 180.176 C 170.869 179.478,170.542 178.335,170.345 177.637 C 170.147 176.938,169.430 174.521,168.750 172.266 C 168.070 170.010,167.343 167.549,167.133 166.797 C 164.390 156.940,163.944 155.990,161.682 155.198 C 159.985 154.603,145.483 154.564,144.269 155.151 M70.645 232.819 C 66.974 234.758,65.107 238.834,66.155 242.622 C 70.835 259.550,77.988 274.064,88.436 287.838 C 93.385 294.362,93.971 295.043,99.463 300.644 C 104.554 305.835,109.232 310.018,114.659 314.231 C 117.082 316.113,126.016 322.266,126.325 322.266 C 126.422 322.266,127.965 323.107,129.754 324.135 C 133.266 326.154,135.533 327.270,141.602 329.970 C 143.750 330.926,146.035 331.946,146.680 332.235 C 149.406 333.461,157.449 335.938,158.702 335.938 C 164.484 335.938,168.832 329.302,166.581 323.913 C 165.330 320.920,163.865 319.884,158.203 317.994 C 156.162 317.312,154.097 316.589,153.613 316.385 C 153.130 316.182,152.295 315.840,151.758 315.625 C 136.874 309.672,124.213 301.209,112.276 289.235 C 108.576 285.523,105.769 282.341,103.516 279.303 C 102.979 278.578,102.178 277.534,101.738 276.981 C 98.549 272.985,94.536 266.461,91.147 259.764 C 88.425 254.387,87.873 253.154,86.340 249.023 C 85.862 247.734,85.322 246.328,85.141 245.898 C 84.960 245.469,84.337 243.535,83.758 241.602 C 81.200 233.061,76.344 229.808,70.645 232.819 " stroke="none" fill="#060606" fill-rule="evenodd"></path><path id="path1" d="M71.875 26.377 C 45.363 29.903,29.259 44.534,23.944 69.922 C 22.735 75.696,22.427 90.496,23.378 97.070 C 25.016 108.393,29.054 124.798,31.647 130.664 C 31.837 131.094,32.248 132.236,32.560 133.203 C 33.548 136.258,37.095 144.975,38.894 148.770 C 39.846 150.779,40.625 152.493,40.625 152.579 C 40.625 153.060,48.923 169.324,51.168 173.242 C 51.661 174.102,52.502 175.596,53.038 176.563 C 57.665 184.910,70.112 204.033,77.706 214.461 C 91.850 233.883,112.306 257.747,127.600 272.668 C 148.462 293.019,163.715 306.346,181.836 320.053 C 190.726 326.777,218.345 345.703,219.268 345.703 C 219.369 345.703,220.568 346.377,221.933 347.200 C 228.030 350.880,243.406 358.958,249.414 361.638 C 251.777 362.692,254.516 363.924,255.500 364.374 C 256.484 364.825,258.242 365.568,259.406 366.026 C 260.571 366.483,262.095 367.108,262.793 367.413 C 263.491 367.719,264.634 368.217,265.332 368.521 C 272.095 371.462,290.646 376.800,298.822 378.158 C 325.131 382.528,345.209 378.761,358.398 366.981 C 359.043 366.406,359.922 365.643,360.352 365.287 C 376.109 352.218,381.100 322.494,372.823 291.024 C 371.296 285.217,368.427 275.922,367.577 274.023 C 367.384 273.594,366.971 272.451,366.658 271.484 C 366.053 269.614,363.237 262.437,362.213 260.156 C 359.838 254.865,357.281 249.709,356.720 249.081 C 352.699 244.579,344.970 245.488,342.285 250.778 C 340.660 253.979,341.021 256.239,344.314 263.477 C 345.096 265.195,345.880 266.953,346.058 267.383 C 346.235 267.813,346.603 268.691,346.875 269.336 C 347.147 269.980,347.499 270.859,347.656 271.289 C 347.814 271.719,348.125 272.510,348.347 273.047 C 348.570 273.584,349.138 275.078,349.609 276.367 C 350.081 277.656,350.614 279.063,350.794 279.492 C 352.097 282.606,355.344 293.849,356.603 299.609 C 367.920 351.355,341.829 372.773,286.719 356.977 C 282.251 355.697,280.425 355.112,277.734 354.100 C 276.768 353.737,275.010 353.088,273.828 352.658 C 270.315 351.381,268.338 350.587,267.095 349.954 C 266.722 349.765,266.243 349.609,266.031 349.609 C 265.818 349.609,264.454 349.071,262.998 348.413 C 261.542 347.755,259.297 346.747,258.008 346.173 C 255.401 345.012,240.314 337.475,238.477 336.416 C 237.832 336.045,236.250 335.132,234.961 334.389 C 233.672 333.645,232.266 332.838,231.836 332.595 C 227.449 330.116,222.699 327.104,212.305 320.212 C 164.640 288.608,114.837 238.864,82.895 190.956 C 77.188 182.396,71.094 172.811,71.094 172.394 C 71.094 172.282,70.769 171.724,70.372 171.154 C 69.975 170.584,69.071 169.063,68.364 167.773 C 67.656 166.484,66.486 164.375,65.763 163.086 C 64.011 159.960,56.709 145.382,55.295 142.188 C 53.933 139.112,52.765 136.406,52.345 135.352 C 52.173 134.922,51.766 133.955,51.440 133.203 C 51.114 132.451,50.472 130.781,50.014 129.492 C 33.067 81.861,38.791 52.837,66.602 45.375 C 71.421 44.082,72.772 43.956,81.836 43.952 C 91.163 43.947,91.871 44.012,100.977 45.703 C 106.196 46.673,124.423 52.100,127.930 53.728 C 128.574 54.027,130.947 55.045,133.203 55.989 C 135.459 56.933,139.168 58.520,141.445 59.516 C 150.339 63.406,156.599 60.649,156.632 52.828 C 156.656 47.178,153.278 44.771,135.938 38.080 C 133.896 37.292,131.875 36.504,131.445 36.329 C 112.275 28.508,87.263 24.330,71.875 26.377 " stroke="none" fill="#fcbc1e" fill-rule="evenodd"></path><path id="path2" d="M0.000 200.000 L 0.000 400.000 200.000 400.000 L 400.000 400.000 400.000 200.000 L 400.000 0.000 200.000 0.000 L 0.000 0.000 0.000 200.000 M91.602 26.360 C 105.309 28.033,120.309 31.786,131.445 36.329 C 131.875 36.504,133.896 37.292,135.938 38.080 C 153.278 44.771,156.656 47.178,156.632 52.828 C 156.599 60.649,150.339 63.406,141.445 59.516 C 139.168 58.520,135.459 56.933,133.203 55.989 C 130.947 55.045,128.574 54.027,127.930 53.728 C 124.423 52.100,106.196 46.673,100.977 45.703 C 91.871 44.012,91.163 43.947,81.836 43.952 C 72.772 43.956,71.421 44.082,66.602 45.375 C 38.791 52.837,33.067 81.861,50.014 129.492 C 50.472 130.781,51.114 132.451,51.440 133.203 C 51.766 133.955,52.173 134.922,52.345 135.352 C 52.765 136.406,53.933 139.112,55.295 142.188 C 56.709 145.382,64.011 159.960,65.763 163.086 C 66.486 164.375,67.656 166.484,68.364 167.773 C 69.071 169.063,69.975 170.584,70.372 171.154 C 70.769 171.724,71.094 172.282,71.094 172.394 C 71.094 172.811,77.188 182.396,82.895 190.956 C 114.837 238.864,164.640 288.608,212.305 320.212 C 222.699 327.104,227.449 330.116,231.836 332.595 C 232.266 332.838,233.672 333.645,234.961 334.389 C 236.250 335.132,237.832 336.045,238.477 336.416 C 240.314 337.475,255.401 345.012,258.008 346.173 C 259.297 346.747,261.542 347.755,262.998 348.413 C 264.454 349.071,265.818 349.609,266.031 349.609 C 266.243 349.609,266.722 349.765,267.095 349.954 C 268.338 350.587,270.315 351.381,273.828 352.658 C 275.010 353.088,276.768 353.737,277.734 354.100 C 301.031 362.858,325.827 364.431,339.679 358.031 C 359.500 348.873,364.407 323.823,353.455 287.695 C 352.253 283.732,351.169 280.389,350.794 279.492 C 350.614 279.063,350.081 277.656,349.609 276.367 C 349.138 275.078,348.570 273.584,348.347 273.047 C 348.125 272.510,347.814 271.719,347.656 271.289 C 347.499 270.859,347.147 269.980,346.875 269.336 C 346.603 268.691,346.235 267.813,346.058 267.383 C 345.880 266.953,345.096 265.195,344.314 263.477 C 341.021 256.239,340.660 253.979,342.285 250.778 C 344.970 245.488,352.699 244.579,356.720 249.081 C 357.281 249.709,359.838 254.865,362.213 260.156 C 363.237 262.437,366.053 269.614,366.658 271.484 C 366.971 272.451,367.384 273.594,367.577 274.023 C 368.427 275.922,371.296 285.217,372.823 291.024 C 381.100 322.494,376.109 352.218,360.352 365.287 C 359.922 365.643,359.043 366.406,358.398 366.981 C 345.209 378.761,325.131 382.528,298.822 378.158 C 290.646 376.800,272.095 371.462,265.332 368.521 C 264.634 368.217,263.491 367.719,262.793 367.413 C 262.095 367.108,260.571 366.483,259.406 366.026 C 258.242 365.568,256.484 364.825,255.500 364.374 C 254.516 363.924,251.777 362.692,249.414 361.638 C 243.406 358.958,228.030 350.880,221.933 347.200 C 220.568 346.377,219.369 345.703,219.268 345.703 C 218.881 345.703,197.165 331.200,191.786 327.350 C 169.688 311.531,151.926 296.399,127.600 272.668 C 112.306 257.747,91.850 233.883,77.706 214.461 C 70.112 204.033,57.665 184.910,53.038 176.563 C 52.502 175.596,51.661 174.102,51.168 173.242 C 48.923 169.324,40.625 153.060,40.625 152.579 C 40.625 152.493,39.846 150.779,38.894 148.770 C 37.095 144.975,33.548 136.258,32.560 133.203 C 32.248 132.236,31.837 131.094,31.647 130.664 C 30.718 128.564,28.047 119.659,26.608 113.867 C 17.761 78.266,24.172 50.760,44.727 36.125 C 56.095 28.031,74.271 24.244,91.602 26.360 M206.836 73.235 C 212.429 73.777,214.719 74.089,219.531 74.959 C 222.911 75.570,228.437 76.762,230.469 77.317 C 231.221 77.522,232.451 77.854,233.203 78.054 C 249.464 82.378,270.601 94.195,284.570 106.770 C 293.425 114.741,305.055 128.251,308.594 134.677 C 308.917 135.263,309.620 136.445,310.156 137.305 C 315.457 145.798,321.698 159.820,324.239 168.945 C 324.419 169.590,324.763 170.820,325.004 171.680 C 330.428 191.000,331.332 214.942,327.347 233.691 C 325.260 243.516,323.919 247.990,320.411 256.836 C 319.051 260.265,313.981 270.901,312.591 273.242 C 312.208 273.887,311.381 275.293,310.754 276.367 C 304.747 286.652,290.285 303.849,283.099 309.251 C 282.190 309.935,281.094 310.819,280.664 311.215 C 275.842 315.663,263.636 323.668,255.078 327.997 C 251.696 329.707,246.598 330.429,245.898 329.297 C 245.766 329.082,245.332 328.906,244.935 328.906 C 243.895 328.906,240.906 325.395,240.332 323.500 C 238.665 317.992,241.048 314.441,249.023 310.548 C 250.527 309.814,252.461 308.752,253.320 308.188 C 254.180 307.624,255.146 307.062,255.469 306.938 C 256.780 306.436,265.834 299.969,269.791 296.709 C 283.607 285.326,296.241 268.262,302.494 252.539 C 303.092 251.035,303.818 249.277,304.107 248.633 C 304.709 247.290,306.692 241.279,307.393 238.672 C 307.653 237.705,308.013 236.387,308.193 235.742 C 309.220 232.073,310.552 224.378,311.312 217.729 C 312.209 209.883,311.519 195.959,309.777 186.719 C 308.900 182.068,308.486 180.263,307.045 174.805 C 305.078 167.355,298.869 152.954,295.651 148.377 C 295.250 147.807,294.922 147.230,294.922 147.096 C 294.922 146.724,288.989 138.074,286.464 134.766 C 283.298 130.618,271.144 118.643,267.037 115.625 C 265.136 114.229,262.778 112.491,261.796 111.763 C 260.813 111.036,259.208 109.962,258.228 109.377 C 257.247 108.792,254.982 107.410,253.194 106.305 C 251.406 105.201,249.884 104.297,249.813 104.297 C 249.741 104.297,247.865 103.437,245.642 102.386 C 234.606 97.169,226.872 94.637,216.797 92.945 C 207.670 91.412,200.380 90.900,191.797 91.190 C 181.725 91.530,173.869 92.589,166.992 94.534 C 166.133 94.777,164.990 95.065,164.453 95.174 C 163.916 95.282,163.125 95.514,162.695 95.688 C 162.266 95.863,160.508 96.447,158.789 96.988 C 152.857 98.852,143.756 102.813,138.672 105.744 C 117.898 117.716,102.394 133.674,92.327 153.446 C 88.313 161.329,86.001 163.264,81.241 162.725 C 73.065 161.800,70.868 155.504,75.458 146.151 C 88.837 118.893,114.126 95.611,143.945 83.100 C 150.609 80.304,155.964 78.451,160.547 77.356 C 161.299 77.176,162.881 76.772,164.063 76.457 C 166.023 75.936,167.457 75.648,173.242 74.615 C 178.043 73.758,180.510 73.435,182.467 73.409 C 183.624 73.393,185.361 73.239,186.328 73.067 C 189.284 72.541,200.644 72.634,206.836 73.235 M162.727 155.033 C 164.494 156.111,165.987 160.251,170.739 177.246 C 171.593 180.301,171.879 181.281,173.047 185.156 C 173.727 187.412,174.444 189.829,174.642 190.527 C 175.141 192.296,175.715 194.304,176.150 195.801 C 177.116 199.127,177.424 200.277,177.616 201.270 C 177.983 203.173,178.284 202.468,180.447 194.625 C 181.617 190.384,182.889 185.859,183.274 184.570 C 183.861 182.602,185.144 178.032,187.549 169.336 C 187.787 168.477,188.116 167.334,188.281 166.797 C 188.446 166.260,188.798 165.029,189.063 164.063 C 189.327 163.096,189.679 161.865,189.844 161.328 C 190.009 160.791,190.379 159.571,190.667 158.618 C 190.954 157.664,191.771 156.301,192.483 155.590 L 193.776 154.297 199.804 154.297 L 205.832 154.297 207.168 155.470 C 208.449 156.595,208.928 157.672,210.206 162.305 C 210.443 163.164,210.772 164.307,210.938 164.844 C 211.103 165.381,211.454 166.611,211.719 167.578 C 211.983 168.545,212.335 169.775,212.500 170.313 C 212.665 170.850,213.017 172.080,213.281 173.047 C 213.546 174.014,213.897 175.244,214.063 175.781 C 214.228 176.318,214.579 177.549,214.844 178.516 C 215.108 179.482,215.477 180.713,215.662 181.250 C 216.064 182.415,220.630 198.453,221.098 200.341 C 221.530 202.088,222.264 202.840,222.271 201.543 C 222.274 201.017,222.560 199.795,222.905 198.828 C 223.251 197.861,223.697 196.455,223.898 195.703 C 224.099 194.951,224.429 193.765,224.631 193.066 C 224.834 192.368,225.176 191.182,225.391 190.430 C 225.605 189.678,225.957 188.447,226.172 187.695 C 226.387 186.943,226.722 185.757,226.917 185.059 C 227.112 184.360,228.621 179.219,230.272 173.633 C 233.400 163.044,233.771 161.763,234.313 159.668 C 235.603 154.687,236.501 154.300,246.795 154.298 C 257.324 154.296,257.964 154.648,256.404 159.570 C 256.063 160.645,255.640 162.051,255.464 162.695 C 255.287 163.340,254.791 165.010,254.362 166.406 C 248.410 185.764,247.647 188.271,247.280 189.648 C 247.108 190.293,246.709 191.611,246.392 192.578 C 246.075 193.545,245.591 195.127,245.316 196.094 C 245.042 197.061,244.513 198.818,244.141 200.000 C 243.768 201.182,243.241 202.939,242.969 203.906 C 242.696 204.873,242.169 206.631,241.797 207.813 C 241.425 208.994,240.897 210.752,240.625 211.719 C 240.353 212.686,239.823 214.443,239.448 215.625 C 239.074 216.807,238.382 219.092,237.912 220.703 C 237.441 222.314,236.904 224.072,236.719 224.609 C 236.533 225.146,235.568 228.311,234.574 231.641 C 231.345 242.457,232.111 241.797,222.805 241.797 C 216.081 241.797,215.860 241.771,214.645 240.844 C 213.108 239.672,213.358 240.314,209.318 227.148 C 208.857 225.645,208.003 222.920,207.422 221.094 C 206.840 219.268,205.988 216.543,205.527 215.039 C 205.067 213.535,204.191 210.723,203.581 208.789 C 202.972 206.855,201.963 203.647,201.340 201.660 C 199.920 197.129,200.086 197.040,198.075 203.418 C 197.143 206.372,195.992 210.020,195.517 211.523 C 195.042 213.027,194.248 215.576,193.754 217.188 C 193.259 218.799,192.376 221.611,191.791 223.438 C 191.206 225.264,190.185 228.516,189.521 230.664 C 185.802 242.699,186.841 241.797,176.696 241.797 L 169.287 241.797 168.281 240.723 C 167.573 239.966,166.735 237.857,165.447 233.594 C 164.442 230.264,163.466 227.100,163.280 226.563 C 162.997 225.746,161.788 221.772,160.132 216.211 C 159.940 215.566,159.451 213.984,159.045 212.695 C 158.640 211.406,158.085 209.561,157.813 208.594 C 157.540 207.627,157.016 205.869,156.647 204.688 C 155.220 200.114,154.390 197.393,153.906 195.703 C 153.629 194.736,153.144 193.154,152.827 192.188 C 152.510 191.221,152.111 189.902,151.939 189.258 C 151.569 187.870,150.717 185.074,148.245 177.148 C 147.241 173.926,145.920 169.619,145.310 167.578 C 141.071 153.381,140.528 154.327,152.930 154.311 C 160.662 154.301,161.644 154.373,162.727 155.033 M76.500 231.664 C 80.276 232.473,82.090 234.704,84.056 240.953 C 85.272 244.820,87.109 249.913,88.163 252.344 C 89.248 254.845,90.691 257.996,91.205 258.984 C 93.411 263.230,94.698 265.536,96.657 268.750 C 98.742 272.172,99.999 273.934,105.249 280.799 C 117.124 296.329,137.634 310.556,158.002 317.393 C 166.541 320.260,169.512 324.692,166.971 330.774 C 164.269 337.244,158.002 337.729,145.898 332.404 C 144.824 331.931,143.154 331.196,142.188 330.771 C 140.569 330.058,138.605 329.154,133.984 326.994 C 133.018 326.542,131.348 325.640,130.273 324.991 C 129.199 324.342,128.057 323.697,127.734 323.559 C 118.173 319.453,97.592 301.043,87.859 287.891 C 82.319 280.404,79.707 276.219,75.061 267.383 C 74.144 265.639,71.853 260.500,70.663 257.520 C 70.470 257.036,70.153 256.245,69.958 255.762 C 67.028 248.492,65.072 241.407,65.411 239.288 C 66.256 234.001,71.283 230.545,76.500 231.664 " stroke="none" fill="#fbfbfb" fill-rule="evenodd"></path><path id="path3" d="M191.504 72.947 C 193.599 73.018,197.026 73.018,199.121 72.947 C 201.216 72.877,199.502 72.820,195.313 72.820 C 191.123 72.820,189.409 72.877,191.504 72.947 M185.645 73.316 C 186.021 73.414,186.636 73.414,187.012 73.316 C 187.388 73.218,187.080 73.138,186.328 73.138 C 185.576 73.138,185.269 73.218,185.645 73.316 M204.400 73.327 C 204.994 73.417,205.873 73.415,206.353 73.322 C 206.833 73.229,206.348 73.156,205.273 73.159 C 204.199 73.162,203.806 73.237,204.400 73.327 M179.985 73.714 C 180.471 73.807,181.174 73.804,181.548 73.706 C 181.921 73.608,181.523 73.532,180.664 73.536 C 179.805 73.540,179.499 73.620,179.985 73.714 M173.242 74.628 C 172.698 74.874,172.934 74.909,174.023 74.744 C 174.883 74.613,175.659 74.441,175.749 74.362 C 176.084 74.066,173.992 74.288,173.242 74.628 M158.984 77.752 C 158.556 78.042,158.714 78.078,159.570 77.887 C 161.007 77.565,161.318 77.342,160.319 77.350 C 159.907 77.353,159.307 77.534,158.984 77.752 M230.111 77.484 C 230.200 77.561,230.801 77.742,231.445 77.887 C 232.301 78.078,232.459 78.042,232.031 77.752 C 231.504 77.395,229.719 77.146,230.111 77.484 M156.250 78.533 C 155.822 78.823,155.980 78.859,156.836 78.668 C 158.272 78.347,158.584 78.123,157.585 78.131 C 157.173 78.134,156.572 78.315,156.250 78.533 M232.845 78.265 C 232.935 78.343,233.535 78.524,234.180 78.668 C 235.036 78.859,235.194 78.823,234.766 78.533 C 234.238 78.177,232.453 77.927,232.845 78.265 M194.058 90.915 C 195.409 90.991,197.519 90.990,198.746 90.913 C 199.973 90.836,198.867 90.773,196.289 90.774 C 193.711 90.775,192.707 90.838,194.058 90.915 M186.816 91.300 C 187.622 91.384,188.940 91.384,189.746 91.300 C 190.552 91.216,189.893 91.147,188.281 91.147 C 186.670 91.147,186.011 91.216,186.816 91.300 M202.628 91.298 C 203.321 91.384,204.552 91.385,205.362 91.301 C 206.173 91.216,205.605 91.146,204.102 91.144 C 202.598 91.142,201.935 91.211,202.628 91.298 M209.375 91.778 C 210.351 92.109,212.775 92.317,212.467 92.042 C 212.378 91.962,211.426 91.795,210.352 91.671 C 209.034 91.519,208.716 91.554,209.375 91.778 M178.813 92.073 C 179.299 92.167,180.002 92.163,180.376 92.065 C 180.749 91.967,180.352 91.891,179.492 91.895 C 178.633 91.900,178.327 91.980,178.813 92.073 M214.648 92.560 C 215.398 92.900,217.491 93.121,217.155 92.825 C 217.065 92.746,216.289 92.575,215.430 92.444 C 214.341 92.278,214.104 92.313,214.648 92.560 M219.141 93.342 C 219.463 93.560,220.063 93.741,220.475 93.744 C 221.475 93.752,221.163 93.528,219.727 93.207 C 218.871 93.016,218.713 93.052,219.141 93.342 M222.852 94.141 C 223.281 94.325,223.896 94.476,224.219 94.476 C 224.588 94.476,224.516 94.352,224.023 94.141 C 223.594 93.956,222.979 93.805,222.656 93.805 C 222.287 93.805,222.359 93.929,222.852 94.141 M271.484 96.626 C 271.484 96.734,272.012 97.197,272.656 97.656 C 273.301 98.115,273.828 98.403,273.828 98.295 C 273.828 98.188,273.301 97.725,272.656 97.266 C 272.012 96.807,271.484 96.519,271.484 96.626 M280.469 103.247 C 280.469 103.314,281.040 103.886,281.738 104.517 L 283.008 105.664 281.861 104.395 C 280.791 103.211,280.469 102.945,280.469 103.247 M139.258 105.078 C 138.613 105.505,138.262 105.851,138.477 105.848 C 138.868 105.842,140.992 104.320,140.625 104.308 C 140.518 104.305,139.902 104.651,139.258 105.078 M250.977 104.890 C 251.406 105.240,252.109 105.699,252.539 105.910 L 253.320 106.293 252.539 105.657 C 252.109 105.307,251.406 104.848,250.977 104.637 L 250.195 104.254 250.977 104.890 M283.984 106.372 C 283.984 106.439,284.556 107.011,285.254 107.642 L 286.523 108.789 285.376 107.520 C 284.307 106.336,283.984 106.070,283.984 106.372 M104.083 108.691 L 102.539 110.352 104.199 108.807 C 105.743 107.371,106.039 107.031,105.743 107.031 C 105.680 107.031,104.932 107.778,104.083 108.691 M100.177 112.207 L 98.633 113.867 100.293 112.323 C 101.837 110.887,102.133 110.547,101.837 110.547 C 101.773 110.547,101.026 111.294,100.177 112.207 M260.938 111.080 C 260.938 111.187,261.465 111.650,262.109 112.109 C 262.754 112.568,263.281 112.856,263.281 112.749 C 263.281 112.641,262.754 112.178,262.109 111.719 C 261.465 111.260,260.938 110.972,260.938 111.080 M290.820 112.891 C 291.878 113.965,292.832 114.844,292.939 114.844 C 293.047 114.844,292.269 113.965,291.211 112.891 C 290.153 111.816,289.199 110.938,289.092 110.938 C 288.984 110.938,289.762 111.816,290.820 112.891 M123.423 115.653 L 122.070 116.853 123.535 115.802 C 124.830 114.873,125.251 114.453,124.888 114.453 C 124.826 114.453,124.167 114.993,123.423 115.653 M95.703 116.992 C 94.754 117.959,94.066 118.750,94.173 118.750 C 94.281 118.750,95.145 117.959,96.094 116.992 C 97.043 116.025,97.731 115.234,97.624 115.234 C 97.516 115.234,96.652 116.025,95.703 116.992 M117.969 120.117 C 117.020 121.084,116.331 121.875,116.439 121.875 C 116.546 121.875,117.411 121.084,118.359 120.117 C 119.308 119.150,119.997 118.359,119.889 118.359 C 119.782 118.359,118.918 119.150,117.969 120.117 M271.875 119.727 C 272.604 120.479,273.288 121.094,273.395 121.094 C 273.503 121.094,272.994 120.479,272.266 119.727 C 271.537 118.975,270.853 118.359,270.745 118.359 C 270.638 118.359,271.146 118.975,271.875 119.727 M278.118 125.488 C 281.921 129.389,282.422 129.865,282.422 129.583 C 282.422 129.525,280.532 127.636,278.223 125.384 L 274.023 121.289 278.118 125.488 M303.125 127.344 C 303.584 127.988,304.047 128.516,304.155 128.516 C 304.262 128.516,303.975 127.988,303.516 127.344 C 303.057 126.699,302.593 126.172,302.486 126.172 C 302.378 126.172,302.666 126.699,303.125 127.344 M282.422 130.200 C 282.422 130.268,282.993 130.839,283.691 131.470 L 284.961 132.617 283.814 131.348 C 282.744 130.164,282.422 129.899,282.422 130.200 M307.126 132.974 C 308.041 134.353,308.849 135.421,308.922 135.348 C 309.080 135.191,305.911 130.469,305.647 130.469 C 305.546 130.469,306.212 131.596,307.126 132.974 M77.943 141.245 C 77.579 141.801,77.349 142.323,77.431 142.405 C 77.513 142.487,77.888 142.032,78.265 141.394 C 79.107 139.969,78.856 139.852,77.943 141.245 M72.747 153.906 C 72.747 154.658,72.827 154.966,72.926 154.590 C 73.024 154.214,73.024 153.599,72.926 153.223 C 72.827 152.847,72.747 153.154,72.747 153.906 M159.798 154.436 C 159.888 154.513,160.576 154.688,161.328 154.826 C 162.290 155.003,162.522 154.963,162.109 154.693 C 161.580 154.346,159.411 154.105,159.798 154.436 M237.891 154.693 C 237.478 154.963,237.710 155.003,238.672 154.826 C 240.357 154.517,240.674 154.295,239.421 154.303 C 238.901 154.306,238.213 154.482,237.891 154.693 M254.967 154.874 C 255.817 155.243,256.301 155.775,256.466 156.518 C 256.861 158.303,256.968 158.461,257.000 157.306 C 257.036 156.060,255.505 154.288,254.412 154.312 C 253.984 154.322,254.200 154.540,254.967 154.874 M75.670 160.159 C 76.576 161.103,77.378 161.796,77.453 161.700 C 77.527 161.603,76.786 160.830,75.806 159.983 L 74.023 158.442 75.670 160.159 M255.123 162.566 C 255.099 162.924,254.977 163.539,254.853 163.933 C 254.640 164.611,254.652 164.612,255.075 163.953 C 255.320 163.570,255.442 162.955,255.345 162.585 C 255.186 161.981,255.164 161.979,255.123 162.566 M81.543 162.776 C 82.026 162.869,82.817 162.869,83.301 162.776 C 83.784 162.683,83.389 162.606,82.422 162.606 C 81.455 162.606,81.060 162.683,81.543 162.776 M253.759 167.007 C 253.625 167.356,253.531 167.935,253.549 168.294 C 253.568 168.652,253.738 168.427,253.927 167.793 C 254.295 166.560,254.165 165.950,253.759 167.007 M145.946 169.727 C 146.085 170.371,146.354 171.162,146.542 171.484 C 146.762 171.859,146.794 171.648,146.632 170.898 C 146.493 170.254,146.224 169.463,146.036 169.141 C 145.816 168.766,145.784 168.977,145.946 169.727 M227.197 183.804 C 227.063 184.153,226.968 184.732,226.987 185.091 C 227.005 185.449,227.175 185.224,227.364 184.590 C 227.733 183.357,227.602 182.747,227.197 183.804 M328.390 189.648 C 328.514 190.723,328.681 191.675,328.761 191.764 C 329.036 192.072,328.828 189.648,328.496 188.672 C 328.273 188.013,328.238 188.331,328.390 189.648 M310.247 189.453 C 310.247 190.205,310.327 190.513,310.426 190.137 C 310.524 189.761,310.524 189.146,310.426 188.770 C 310.327 188.394,310.247 188.701,310.247 189.453 M311.055 195.703 C 311.055 196.885,311.128 197.368,311.217 196.777 C 311.307 196.187,311.307 195.220,311.217 194.629 C 311.128 194.038,311.055 194.521,311.055 195.703 M329.005 195.508 C 329.009 196.367,329.089 196.673,329.183 196.187 C 329.276 195.701,329.272 194.998,329.175 194.624 C 329.077 194.251,329.000 194.648,329.005 195.508 M329.409 199.023 C 329.412 200.098,329.487 200.491,329.577 199.897 C 329.667 199.303,329.665 198.424,329.572 197.944 C 329.479 197.463,329.406 197.949,329.409 199.023 M311.427 200.195 C 311.431 201.055,311.511 201.360,311.604 200.874 C 311.698 200.388,311.694 199.685,311.597 199.312 C 311.499 198.938,311.422 199.336,311.427 200.195 M311.866 208.203 C 311.866 210.674,311.930 211.685,312.007 210.449 C 312.085 209.214,312.085 207.192,312.007 205.957 C 311.930 204.722,311.866 205.732,311.866 208.203 M329.809 208.398 C 329.811 209.687,329.884 210.168,329.971 209.466 C 330.058 208.764,330.056 207.709,329.967 207.122 C 329.877 206.535,329.806 207.109,329.809 208.398 M329.395 218.164 C 329.400 219.023,329.480 219.329,329.573 218.843 C 329.667 218.357,329.663 217.654,329.565 217.281 C 329.467 216.907,329.391 217.305,329.395 218.164 M238.327 218.034 C 238.302 218.393,238.180 219.008,238.056 219.402 C 237.843 220.080,237.855 220.081,238.278 219.421 C 238.524 219.039,238.645 218.423,238.548 218.054 C 238.389 217.449,238.367 217.447,238.327 218.034 M311.049 220.117 C 311.052 221.191,311.128 221.584,311.218 220.991 C 311.308 220.397,311.305 219.518,311.212 219.038 C 311.120 218.557,311.046 219.043,311.049 220.117 M328.997 221.094 C 328.997 221.846,329.077 222.153,329.176 221.777 C 329.274 221.401,329.274 220.786,329.176 220.410 C 329.077 220.034,328.997 220.342,328.997 221.094 M310.419 224.176 C 310.274 224.898,310.176 225.862,310.199 226.318 C 310.223 226.775,310.398 226.357,310.588 225.391 C 310.778 224.424,310.877 223.460,310.807 223.248 C 310.738 223.037,310.563 223.454,310.419 224.176 M328.569 225.000 C 328.534 225.537,328.415 226.416,328.304 226.953 L 328.103 227.930 328.523 226.968 C 328.753 226.439,328.873 225.560,328.787 225.015 L 328.633 224.023 328.569 225.000 M309.625 228.598 C 309.493 229.090,309.401 229.844,309.420 230.273 C 309.438 230.703,309.614 230.369,309.811 229.531 C 310.192 227.908,310.029 227.090,309.625 228.598 M327.588 230.908 C 327.451 231.595,327.411 232.228,327.499 232.317 C 327.588 232.405,327.781 231.925,327.930 231.250 C 328.078 230.575,328.118 229.941,328.018 229.841 C 327.919 229.742,327.725 230.222,327.588 230.908 M73.535 231.519 C 73.911 231.618,74.526 231.618,74.902 231.519 C 75.278 231.421,74.971 231.341,74.219 231.341 C 73.467 231.341,73.159 231.421,73.535 231.519 M80.468 234.181 C 81.219 235.039,81.988 235.918,82.176 236.133 C 82.364 236.348,82.335 236.172,82.113 235.742 C 81.890 235.313,81.121 234.434,80.405 233.790 L 79.102 232.619 80.468 234.181 M326.998 234.050 C 326.974 234.408,326.852 235.024,326.728 235.417 C 326.515 236.095,326.527 236.097,326.950 235.437 C 327.195 235.054,327.317 234.439,327.220 234.070 C 327.061 233.465,327.039 233.463,326.998 234.050 M308.056 235.757 C 307.922 236.106,307.828 236.685,307.846 237.044 C 307.865 237.402,308.035 237.177,308.224 236.543 C 308.592 235.310,308.462 234.700,308.056 235.757 M212.348 236.914 C 212.697 238.477,213.472 239.973,214.279 240.643 C 214.642 240.944,214.478 240.511,213.915 239.681 C 213.351 238.851,212.888 237.889,212.885 237.543 C 212.881 237.197,212.700 236.650,212.482 236.328 C 212.193 235.900,212.156 236.058,212.348 236.914 M326.217 237.566 C 326.192 237.924,326.071 238.539,325.947 238.933 C 325.734 239.611,325.746 239.612,326.169 238.953 C 326.414 238.570,326.536 237.955,326.439 237.585 C 326.280 236.981,326.258 236.979,326.217 237.566 M186.025 239.763 L 185.136 241.211 186.123 240.115 C 186.665 239.512,187.109 238.853,187.109 238.650 C 187.109 238.076,186.978 238.211,186.025 239.763 M65.333 240.430 C 65.337 241.289,65.417 241.595,65.511 241.109 C 65.604 240.623,65.601 239.920,65.503 239.546 C 65.405 239.173,65.329 239.570,65.333 240.430 M321.182 254.004 C 320.517 255.843,320.609 256.341,321.314 254.717 C 321.633 253.981,321.842 253.222,321.778 253.029 C 321.714 252.837,321.446 253.275,321.182 254.004 M293.200 270.215 C 292.407 271.450,292.167 271.980,292.666 271.393 C 293.652 270.233,295.066 267.969,294.804 267.969 C 294.715 267.969,293.993 268.979,293.200 270.215 M78.856 274.414 C 79.067 274.844,79.526 275.547,79.876 275.977 L 80.512 276.758 80.128 275.977 C 79.917 275.547,79.458 274.844,79.109 274.414 L 78.473 273.633 78.856 274.414 M103.073 278.320 C 103.509 278.965,104.329 280.020,104.895 280.664 L 105.924 281.836 105.130 280.664 C 104.694 280.020,103.874 278.965,103.308 278.320 L 102.279 277.148 103.073 278.320 M82.302 280.108 C 82.690 280.769,83.257 281.516,83.563 281.768 C 83.868 282.020,83.625 281.479,83.022 280.566 C 81.758 278.649,81.259 278.332,82.302 280.108 M282.031 284.961 C 281.082 285.928,280.394 286.719,280.501 286.719 C 280.609 286.719,281.473 285.928,282.422 284.961 C 283.371 283.994,284.059 283.203,283.952 283.203 C 283.844 283.203,282.980 283.994,282.031 284.961 M304.688 285.156 C 304.229 285.801,303.941 286.328,304.048 286.328 C 304.156 286.328,304.619 285.801,305.078 285.156 C 305.537 284.512,305.825 283.984,305.717 283.984 C 305.610 283.984,305.146 284.512,304.688 285.156 M109.766 286.436 C 109.766 286.495,111.128 287.857,112.793 289.463 L 115.820 292.383 112.900 289.355 C 110.188 286.544,109.766 286.150,109.766 286.436 M301.508 289.355 C 300.384 290.712,299.908 291.406,300.101 291.406 C 300.209 291.406,300.767 290.791,301.341 290.039 C 302.405 288.644,302.534 288.117,301.508 289.355 M272.070 294.789 C 269.894 296.815,269.869 296.856,271.720 295.372 C 273.533 293.918,274.926 292.555,274.560 292.593 C 274.480 292.602,273.359 293.590,272.070 294.789 M95.687 297.363 C 96.645 298.384,97.480 299.219,97.542 299.219 C 97.836 299.219,97.525 298.868,95.801 297.249 L 93.945 295.508 95.687 297.363 M289.251 303.223 L 284.961 307.617 289.355 303.327 C 291.772 300.967,293.750 298.990,293.750 298.932 C 293.750 298.651,293.236 299.141,289.251 303.223 M99.805 301.953 C 101.080 303.242,102.212 304.297,102.319 304.297 C 102.427 304.297,101.471 303.242,100.195 301.953 C 98.920 300.664,97.788 299.609,97.681 299.609 C 97.573 299.609,98.529 300.664,99.805 301.953 M104.883 306.641 C 105.722 307.500,106.496 308.203,106.604 308.203 C 106.711 308.203,106.113 307.500,105.273 306.641 C 104.434 305.781,103.660 305.078,103.552 305.078 C 103.445 305.078,104.044 305.781,104.883 306.641 M242.112 314.746 C 241.424 315.547,240.908 316.406,241.114 316.406 C 241.194 316.406,241.649 315.879,242.126 315.234 C 243.067 313.961,243.058 313.644,242.112 314.746 M240.087 318.570 C 239.953 318.919,239.870 320.025,239.901 321.028 C 239.957 322.813,239.964 322.801,240.224 320.508 C 240.508 318.005,240.476 317.556,240.087 318.570 M261.523 324.219 C 260.879 324.646,260.527 324.992,260.742 324.989 C 261.134 324.983,263.258 323.460,262.891 323.449 C 262.783 323.445,262.168 323.792,261.523 324.219 M164.823 333.496 L 163.477 334.961 164.941 333.615 C 166.305 332.362,166.586 332.031,166.288 332.031 C 166.222 332.031,165.563 332.690,164.823 333.496 M157.324 336.220 C 158.022 336.307,159.165 336.307,159.863 336.220 C 160.562 336.133,159.990 336.063,158.594 336.063 C 157.197 336.063,156.626 336.133,157.324 336.220 " stroke="none" fill="#9a9a9a" fill-rule="evenodd"></path><path id="path4" d="M188.188 73.323 C 188.674 73.417,189.377 73.413,189.751 73.315 C 190.124 73.217,189.727 73.141,188.867 73.145 C 188.008 73.150,187.702 73.230,188.188 73.323 M198.145 73.334 C 199.165 73.414,200.835 73.414,201.855 73.334 C 202.876 73.254,202.041 73.188,200.000 73.188 C 197.959 73.188,197.124 73.254,198.145 73.334 M183.105 73.720 C 183.804 73.807,184.946 73.807,185.645 73.720 C 186.343 73.633,185.771 73.563,184.375 73.563 C 182.979 73.563,182.407 73.633,183.105 73.720 M205.566 73.722 C 206.372 73.806,207.690 73.806,208.496 73.722 C 209.302 73.638,208.643 73.569,207.031 73.569 C 205.420 73.569,204.761 73.638,205.566 73.722 M176.469 74.495 C 176.955 74.588,177.658 74.585,178.032 74.487 C 178.405 74.389,178.008 74.313,177.148 74.317 C 176.289 74.322,175.983 74.402,176.469 74.495 M213.188 74.495 C 213.674 74.588,214.377 74.585,214.751 74.487 C 215.124 74.389,214.727 74.313,213.867 74.317 C 213.008 74.322,212.702 74.402,213.188 74.495 M220.898 75.763 C 221.648 76.103,223.741 76.324,223.405 76.028 C 223.315 75.949,222.539 75.778,221.680 75.647 C 220.591 75.481,220.354 75.516,220.898 75.763 M224.805 76.563 C 225.234 76.747,225.938 76.893,226.367 76.887 C 226.995 76.878,226.957 76.814,226.172 76.563 C 224.836 76.135,223.809 76.135,224.805 76.563 M161.523 77.344 C 161.031 77.555,160.959 77.679,161.328 77.679 C 161.650 77.679,162.266 77.528,162.695 77.344 C 163.188 77.132,163.260 77.008,162.891 77.008 C 162.568 77.008,161.953 77.159,161.523 77.344 M252.734 86.133 C 253.271 86.440,253.887 86.691,254.102 86.691 C 254.316 86.691,254.053 86.440,253.516 86.133 C 252.979 85.826,252.363 85.575,252.148 85.575 C 251.934 85.575,252.197 85.826,252.734 86.133 M133.105 88.308 C 132.300 88.733,131.641 89.168,131.641 89.275 C 131.641 89.382,132.344 89.110,133.203 88.672 C 134.063 88.233,134.766 87.790,134.766 87.687 C 134.766 87.432,134.763 87.433,133.105 88.308 M194.043 90.522 C 195.171 90.601,197.017 90.601,198.145 90.522 C 199.272 90.443,198.350 90.379,196.094 90.379 C 193.838 90.379,192.915 90.443,194.043 90.522 M188.184 90.908 C 188.882 90.994,190.024 90.994,190.723 90.908 C 191.421 90.821,190.850 90.750,189.453 90.750 C 188.057 90.750,187.485 90.821,188.184 90.908 M201.666 90.905 C 202.259 90.995,203.138 90.993,203.619 90.900 C 204.099 90.807,203.613 90.734,202.539 90.737 C 201.465 90.740,201.072 90.816,201.666 90.905 M182.520 91.295 C 183.110 91.385,184.077 91.385,184.668 91.295 C 185.259 91.206,184.775 91.133,183.594 91.133 C 182.412 91.133,181.929 91.206,182.520 91.295 M207.324 91.291 C 207.808 91.384,208.599 91.384,209.082 91.291 C 209.565 91.198,209.170 91.122,208.203 91.122 C 207.236 91.122,206.841 91.198,207.324 91.291 M179.395 91.676 C 179.771 91.774,180.386 91.774,180.762 91.676 C 181.138 91.577,180.830 91.497,180.078 91.497 C 179.326 91.497,179.019 91.577,179.395 91.676 M175.000 92.207 C 174.341 92.430,174.659 92.465,175.977 92.313 C 177.051 92.189,178.003 92.022,178.092 91.942 C 178.400 91.668,175.976 91.875,175.000 92.207 M212.988 92.066 C 213.364 92.164,213.979 92.164,214.355 92.066 C 214.731 91.968,214.424 91.888,213.672 91.888 C 212.920 91.888,212.612 91.968,212.988 92.066 M169.141 93.359 C 168.356 93.611,168.317 93.674,168.945 93.684 C 169.375 93.690,170.078 93.544,170.508 93.359 C 171.503 92.932,170.476 92.932,169.141 93.359 M224.642 94.281 C 224.731 94.358,225.332 94.539,225.977 94.683 C 226.832 94.875,226.990 94.839,226.563 94.549 C 226.035 94.192,224.250 93.943,224.642 94.281 M105.859 107.227 C 104.911 108.193,104.222 108.984,104.330 108.984 C 104.437 108.984,105.301 108.193,106.250 107.227 C 107.199 106.260,107.887 105.469,107.780 105.469 C 107.672 105.469,106.808 106.260,105.859 107.227 M283.984 106.836 C 284.713 107.588,285.397 108.203,285.505 108.203 C 285.612 108.203,285.104 107.588,284.375 106.836 C 283.646 106.084,282.962 105.469,282.855 105.469 C 282.747 105.469,283.256 106.084,283.984 106.836 M255.469 107.441 C 256.824 108.361,257.595 108.628,256.641 107.847 C 256.104 107.408,255.488 107.047,255.273 107.046 C 255.059 107.044,255.146 107.222,255.469 107.441 M131.927 109.194 C 131.125 109.739,130.469 110.268,130.469 110.371 C 130.469 110.474,131.172 110.093,132.031 109.524 C 133.396 108.621,133.857 108.203,133.489 108.203 C 133.432 108.203,132.728 108.649,131.927 109.194 M290.430 112.891 C 292.786 115.254,294.801 117.188,294.909 117.188 C 295.016 117.188,293.176 115.254,290.820 112.891 C 288.464 110.527,286.449 108.594,286.341 108.594 C 286.234 108.594,288.074 110.527,290.430 112.891 M99.989 112.793 L 97.461 115.430 100.098 112.902 C 101.548 111.512,102.734 110.325,102.734 110.265 C 102.734 109.978,102.337 110.344,99.989 112.793 M262.500 111.877 C 262.500 111.984,263.291 112.616,264.258 113.281 C 265.225 113.946,266.016 114.403,266.016 114.295 C 266.016 114.188,265.225 113.556,264.258 112.891 C 263.291 112.225,262.500 111.769,262.500 111.877 M121.094 117.235 C 119.732 118.429,119.732 118.430,120.984 117.597 C 121.676 117.137,122.346 116.593,122.472 116.388 C 122.849 115.778,122.536 115.970,121.094 117.235 M94.318 118.848 L 92.773 120.508 94.434 118.964 C 95.978 117.528,96.273 117.188,95.978 117.188 C 95.914 117.188,95.167 117.935,94.318 118.848 M115.810 121.973 L 113.086 124.805 115.918 122.081 C 118.548 119.551,118.928 119.141,118.642 119.141 C 118.582 119.141,117.308 120.415,115.810 121.973 M271.875 119.263 C 271.875 119.330,272.446 119.901,273.145 120.532 L 274.414 121.680 273.267 120.410 C 272.197 119.227,271.875 118.961,271.875 119.263 M91.016 122.656 C 90.116 123.730,89.468 124.609,89.576 124.609 C 89.683 124.609,90.507 123.730,91.406 122.656 C 92.306 121.582,92.954 120.703,92.846 120.703 C 92.739 120.703,91.915 121.582,91.016 122.656 M278.320 125.391 C 280.461 127.539,282.300 129.297,282.407 129.297 C 282.515 129.297,280.851 127.539,278.711 125.391 C 276.571 123.242,274.731 121.484,274.624 121.484 C 274.517 121.484,276.180 123.242,278.320 125.391 M109.766 127.930 C 108.165 129.541,106.943 130.859,107.051 130.859 C 107.158 130.859,108.556 129.541,110.156 127.930 C 111.757 126.318,112.978 125.000,112.871 125.000 C 112.764 125.000,111.366 126.318,109.766 127.930 M87.055 127.637 C 85.931 128.993,85.455 129.688,85.648 129.688 C 85.756 129.688,86.314 129.072,86.888 128.320 C 87.952 126.925,88.081 126.398,87.055 127.637 M304.077 129.035 C 304.679 129.823,305.250 130.469,305.346 130.469 C 305.618 130.469,303.927 128.184,303.427 127.875 C 303.183 127.724,303.475 128.246,304.077 129.035 M285.921 133.887 C 286.646 134.800,287.311 135.547,287.397 135.547 C 287.673 135.547,285.999 133.349,285.288 132.778 C 284.910 132.475,285.195 132.974,285.921 133.887 M101.733 137.372 C 101.132 138.160,100.839 138.682,101.083 138.532 C 101.583 138.223,103.274 135.938,103.003 135.938 C 102.906 135.938,102.335 136.583,101.733 137.372 M292.046 142.188 C 293.046 143.691,293.937 144.922,294.026 144.922 C 294.233 144.922,293.943 144.435,292.105 141.699 C 291.275 140.464,290.513 139.453,290.412 139.453 C 290.311 139.453,291.046 140.684,292.046 142.188 M93.959 149.057 C 93.595 149.613,93.364 150.135,93.446 150.217 C 93.529 150.299,93.904 149.845,94.281 149.207 C 95.123 147.782,94.871 147.665,93.959 149.057 M73.153 153.906 C 73.153 154.873,73.229 155.269,73.323 154.785 C 73.416 154.302,73.416 153.511,73.323 153.027 C 73.229 152.544,73.153 152.939,73.153 153.906 M148.946 154.588 C 151.052 154.659,154.392 154.658,156.368 154.588 C 158.344 154.517,156.621 154.459,152.539 154.460 C 148.457 154.460,146.840 154.518,148.946 154.588 M197.574 154.586 C 198.925 154.663,201.034 154.662,202.261 154.585 C 203.488 154.508,202.383 154.445,199.805 154.446 C 197.227 154.447,196.223 154.510,197.574 154.586 M243.437 154.587 C 245.306 154.659,248.470 154.659,250.469 154.588 C 252.467 154.517,250.938 154.459,247.070 154.458 C 243.203 154.458,241.568 154.516,243.437 154.587 M205.838 155.119 C 206.364 155.329,206.987 155.625,207.224 155.777 C 207.460 155.930,207.319 155.747,206.909 155.371 C 206.499 154.995,205.875 154.699,205.523 154.712 C 205.118 154.728,205.234 154.877,205.838 155.119 M236.168 156.280 C 235.611 156.941,235.157 157.688,235.158 157.940 C 235.159 158.192,235.498 157.843,235.912 157.163 C 236.327 156.484,236.985 155.742,237.376 155.515 C 237.766 155.288,237.882 155.097,237.632 155.090 C 237.383 155.083,236.724 155.619,236.168 156.280 M73.454 156.250 C 73.439 156.904,74.849 159.375,75.237 159.375 C 75.374 159.375,75.294 159.143,75.059 158.860 C 74.824 158.576,74.369 157.742,74.050 157.004 C 73.730 156.267,73.462 155.928,73.454 156.250 M142.761 156.747 C 142.638 157.236,142.696 158.064,142.890 158.589 C 143.180 159.372,143.236 159.213,143.203 157.701 C 143.159 155.632,143.082 155.467,142.761 156.747 M256.303 157.031 C 256.268 157.568,256.149 158.447,256.038 158.984 L 255.837 159.961 256.257 158.999 C 256.488 158.471,256.607 157.592,256.522 157.046 L 256.367 156.055 256.303 157.031 M87.870 160.059 L 86.523 161.523 87.988 160.177 C 89.352 158.924,89.633 158.594,89.334 158.594 C 89.269 158.594,88.610 159.253,87.870 160.059 M301.563 159.067 C 301.563 159.488,302.749 162.109,302.940 162.109 C 303.048 162.109,302.864 161.459,302.532 160.665 C 301.946 159.263,301.563 158.631,301.563 159.067 M209.381 161.165 C 209.384 161.577,209.565 162.178,209.783 162.500 C 210.073 162.928,210.109 162.770,209.918 161.914 C 209.597 160.478,209.373 160.166,209.381 161.165 M78.906 162.114 C 79.229 162.320,80.005 162.491,80.632 162.494 C 82.142 162.502,81.814 162.276,79.883 161.980 C 78.819 161.817,78.507 161.860,78.906 162.114 M210.162 163.900 C 210.166 164.312,210.347 164.912,210.565 165.234 C 210.854 165.662,210.891 165.504,210.699 164.648 C 210.378 163.212,210.154 162.900,210.162 163.900 M211.567 168.945 C 211.888 170.382,212.111 170.693,212.103 169.694 C 212.100 169.282,211.919 168.682,211.701 168.359 C 211.411 167.931,211.375 168.089,211.567 168.945 M185.770 176.395 C 185.626 176.968,185.584 177.511,185.676 177.603 C 185.768 177.695,185.961 177.302,186.105 176.730 C 186.249 176.157,186.291 175.614,186.199 175.522 C 186.107 175.430,185.914 175.823,185.770 176.395 M308.459 179.102 C 308.590 179.961,308.762 180.737,308.841 180.827 C 309.137 181.162,308.915 179.070,308.576 178.320 C 308.329 177.776,308.294 178.013,308.459 179.102 M326.199 178.548 C 326.214 179.067,326.386 179.844,326.581 180.273 C 326.827 180.818,326.863 180.581,326.697 179.492 C 326.421 177.679,326.160 177.183,326.199 178.548 M309.051 181.641 C 309.071 182.656,309.686 184.323,309.699 183.398 C 309.706 182.969,309.560 182.266,309.375 181.836 C 309.169 181.357,309.044 181.282,309.051 181.641 M310.022 186.523 C 310.153 187.383,310.324 188.159,310.403 188.249 C 310.699 188.584,310.478 186.492,310.138 185.742 C 309.891 185.198,309.856 185.434,310.022 186.523 M327.833 187.305 C 327.837 188.164,327.917 188.470,328.011 187.984 C 328.104 187.498,328.101 186.795,328.003 186.421 C 327.905 186.048,327.829 186.445,327.833 187.305 M174.225 191.243 C 174.228 191.655,174.409 192.256,174.627 192.578 C 174.917 193.006,174.953 192.848,174.762 191.992 C 174.440 190.556,174.217 190.244,174.225 191.243 M311.028 192.578 C 311.028 193.330,311.109 193.638,311.207 193.262 C 311.305 192.886,311.305 192.271,311.207 191.895 C 311.109 191.519,311.028 191.826,311.028 192.578 M328.633 193.750 C 328.633 194.932,328.706 195.415,328.795 194.824 C 328.885 194.233,328.885 193.267,328.795 192.676 C 328.706 192.085,328.633 192.568,328.633 193.750 M223.873 196.159 C 223.849 196.518,223.727 197.133,223.603 197.527 C 223.390 198.205,223.402 198.206,223.825 197.546 C 224.070 197.164,224.192 196.548,224.095 196.179 C 223.936 195.574,223.914 195.572,223.873 196.159 M311.435 197.266 C 311.435 198.232,311.511 198.628,311.604 198.145 C 311.697 197.661,311.697 196.870,311.604 196.387 C 311.511 195.903,311.435 196.299,311.435 197.266 M244.577 196.550 C 244.552 196.908,244.430 197.524,244.306 197.917 C 244.093 198.595,244.105 198.597,244.528 197.937 C 244.774 197.554,244.895 196.939,244.798 196.570 C 244.639 195.965,244.617 195.963,244.577 196.550 M199.487 197.127 C 199.050 197.564,199.181 198.116,199.653 197.825 C 199.892 197.677,200.253 197.798,200.455 198.094 C 200.738 198.508,200.796 198.459,200.705 197.884 C 200.578 197.086,199.931 196.683,199.487 197.127 M329.013 198.438 C 329.013 199.404,329.089 199.800,329.182 199.316 C 329.275 198.833,329.275 198.042,329.182 197.559 C 329.089 197.075,329.013 197.471,329.013 198.438 M223.092 198.894 C 223.067 199.252,222.946 199.867,222.822 200.261 C 222.609 200.939,222.621 200.940,223.044 200.281 C 223.289 199.898,223.411 199.283,223.314 198.914 C 223.155 198.309,223.133 198.307,223.092 198.894 M311.844 201.563 C 311.844 202.959,311.915 203.530,312.001 202.832 C 312.088 202.134,312.088 200.991,312.001 200.293 C 311.915 199.595,311.844 200.166,311.844 201.563 M243.008 201.797 C 242.783 202.611,242.670 203.347,242.756 203.433 C 242.841 203.519,243.096 202.923,243.320 202.109 C 243.545 201.296,243.659 200.560,243.573 200.474 C 243.487 200.388,243.232 200.983,243.008 201.797 M329.462 208.789 C 329.463 213.301,329.519 215.093,329.589 212.772 C 329.658 210.450,329.657 206.759,329.588 204.569 C 329.519 202.378,329.462 204.277,329.462 208.789 M222.319 201.855 C 222.290 202.339,222.079 202.734,221.852 202.734 C 221.624 202.734,221.556 202.925,221.701 203.159 C 222.127 203.849,222.743 202.934,222.547 201.901 C 222.375 200.992,222.371 200.992,222.319 201.855 M177.397 202.223 C 177.336 203.211,177.938 203.744,178.354 203.071 C 178.524 202.796,178.468 202.718,178.213 202.875 C 177.969 203.026,177.718 202.762,177.620 202.252 C 177.451 201.374,177.450 201.374,177.397 202.223 M241.650 206.070 C 241.516 206.419,241.421 206.998,241.440 207.356 C 241.458 207.715,241.628 207.489,241.818 206.856 C 242.186 205.623,242.056 205.013,241.650 206.070 M311.788 214.453 C 311.745 215.635,311.627 217.305,311.525 218.164 L 311.340 219.727 311.740 218.164 C 311.960 217.305,312.079 215.635,312.003 214.453 L 311.866 212.305 311.788 214.453 M206.879 218.555 C 207.200 219.991,207.424 220.303,207.416 219.303 C 207.413 218.892,207.231 218.291,207.013 217.969 C 206.724 217.541,206.688 217.699,206.879 218.555 M328.997 218.750 C 328.997 219.502,329.077 219.810,329.176 219.434 C 329.274 219.058,329.274 218.442,329.176 218.066 C 329.077 217.690,328.997 217.998,328.997 218.750 M328.622 222.656 C 328.622 223.623,328.698 224.019,328.791 223.535 C 328.884 223.052,328.884 222.261,328.791 221.777 C 328.698 221.294,328.622 221.689,328.622 222.656 M311.028 223.047 C 311.028 223.799,311.109 224.106,311.207 223.730 C 311.305 223.354,311.305 222.739,311.207 222.363 C 311.109 221.987,311.028 222.295,311.028 223.047 M327.825 228.516 C 327.825 229.268,327.905 229.575,328.004 229.199 C 328.102 228.823,328.102 228.208,328.004 227.832 C 327.905 227.456,327.825 227.764,327.825 228.516 M309.428 231.511 C 309.399 231.977,309.274 232.680,309.150 233.074 C 308.937 233.751,308.949 233.752,309.371 233.094 C 309.616 232.712,309.742 232.009,309.649 231.532 C 309.482 230.665,309.481 230.665,309.428 231.511 M73.340 231.916 C 73.823 232.009,74.614 232.009,75.098 231.916 C 75.581 231.823,75.186 231.747,74.219 231.747 C 73.252 231.747,72.856 231.823,73.340 231.916 M68.338 234.277 L 66.992 235.742 68.550 234.375 C 69.407 233.623,70.184 232.964,70.276 232.910 C 70.368 232.856,70.272 232.813,70.064 232.813 C 69.855 232.813,69.079 233.472,68.338 234.277 M80.078 234.180 C 80.807 234.932,81.491 235.547,81.599 235.547 C 81.706 235.547,81.198 234.932,80.469 234.180 C 79.740 233.428,79.056 232.813,78.948 232.813 C 78.841 232.813,79.349 233.428,80.078 234.180 M308.639 234.831 C 308.614 235.190,308.493 235.805,308.369 236.199 C 308.156 236.877,308.167 236.878,308.591 236.218 C 308.836 235.835,308.958 235.220,308.861 234.851 C 308.702 234.246,308.680 234.244,308.639 234.831 M184.961 240.478 C 184.259 241.076,184.115 241.314,184.602 241.072 C 185.318 240.716,186.662 239.430,186.278 239.467 C 186.198 239.475,185.605 239.930,184.961 240.478 M324.853 241.617 C 324.719 241.966,324.624 242.545,324.643 242.903 C 324.661 243.261,324.831 243.036,325.021 242.402 C 325.389 241.170,325.259 240.559,324.853 241.617 M173.554 241.697 C 175.445 241.769,178.433 241.769,180.195 241.697 C 181.957 241.624,180.410 241.566,176.758 241.566 C 173.105 241.567,171.664 241.626,173.554 241.697 M219.843 241.697 C 221.625 241.770,224.438 241.769,226.093 241.696 C 227.748 241.623,226.289 241.564,222.852 241.564 C 219.414 241.565,218.060 241.625,219.843 241.697 M94.090 265.430 C 94.301 265.859,94.760 266.563,95.110 266.992 L 95.746 267.773 95.363 266.992 C 95.152 266.563,94.693 265.859,94.343 265.430 L 93.707 264.648 94.090 265.430 M75.977 268.750 C 76.310 269.395,76.670 269.922,76.778 269.922 C 76.885 269.922,76.700 269.395,76.367 268.750 C 76.034 268.105,75.673 267.578,75.566 267.578 C 75.458 267.578,75.643 268.105,75.977 268.750 M291.406 273.242 C 290.741 274.209,290.285 275.000,290.392 275.000 C 290.500 275.000,291.132 274.209,291.797 273.242 C 292.462 272.275,292.918 271.484,292.811 271.484 C 292.704 271.484,292.071 272.275,291.406 273.242 M311.184 274.707 L 310.482 275.977 311.287 275.000 C 312.001 274.134,312.318 273.438,311.998 273.438 C 311.937 273.438,311.571 274.009,311.184 274.707 M308.443 279.102 C 308.096 279.639,307.528 280.562,307.180 281.152 L 306.548 282.227 307.334 281.276 C 308.262 280.153,309.493 278.125,309.247 278.125 C 309.152 278.125,308.790 278.564,308.443 279.102 M286.328 280.078 C 285.869 280.723,285.582 281.250,285.689 281.250 C 285.796 281.250,286.260 280.723,286.719 280.078 C 287.178 279.434,287.465 278.906,287.358 278.906 C 287.250 278.906,286.787 279.434,286.328 280.078 M305.469 283.594 C 305.010 284.238,304.722 284.766,304.830 284.766 C 304.937 284.766,305.400 284.238,305.859 283.594 C 306.318 282.949,306.606 282.422,306.499 282.422 C 306.391 282.422,305.928 282.949,305.469 283.594 M107.796 284.473 C 109.415 286.197,109.766 286.507,109.766 286.214 C 109.766 286.151,108.931 285.316,107.910 284.359 L 106.055 282.617 107.796 284.473 M86.328 285.547 C 86.787 286.191,87.250 286.719,87.358 286.719 C 87.465 286.719,87.178 286.191,86.719 285.547 C 86.260 284.902,85.796 284.375,85.689 284.375 C 85.582 284.375,85.869 284.902,86.328 285.547 M281.040 286.426 L 279.102 288.477 281.152 286.538 C 282.280 285.472,283.203 284.549,283.203 284.487 C 283.203 284.196,282.841 284.520,281.040 286.426 M112.109 289.258 C 113.276 290.439,114.319 291.406,114.426 291.406 C 114.534 291.406,113.667 290.439,112.500 289.258 C 111.333 288.076,110.290 287.109,110.183 287.109 C 110.076 287.109,110.942 288.076,112.109 289.258 M274.598 292.871 L 272.070 295.508 274.707 292.980 C 276.157 291.590,277.344 290.403,277.344 290.343 C 277.344 290.056,276.946 290.422,274.598 292.871 M91.390 292.090 C 92.115 293.003,92.779 293.750,92.865 293.750 C 93.141 293.750,91.467 291.552,90.756 290.981 C 90.379 290.678,90.664 291.177,91.390 292.090 M117.773 294.531 C 118.613 295.391,119.387 296.094,119.494 296.094 C 119.602 296.094,119.003 295.391,118.164 294.531 C 117.325 293.672,116.550 292.969,116.443 292.969 C 116.336 292.969,116.934 293.672,117.773 294.531 M297.046 294.629 L 295.898 295.898 297.168 294.751 C 297.866 294.120,298.438 293.549,298.438 293.482 C 298.438 293.180,298.115 293.446,297.046 294.629 M94.906 296.191 C 95.863 297.212,96.698 298.047,96.761 298.047 C 97.054 298.047,96.744 297.696,95.020 296.077 L 93.164 294.336 94.906 296.191 M119.922 296.216 C 119.922 296.283,120.493 296.854,121.191 297.486 L 122.461 298.633 121.314 297.363 C 120.244 296.180,119.922 295.914,119.922 296.216 M293.348 298.730 L 290.820 301.367 293.457 298.839 C 294.907 297.449,296.094 296.263,296.094 296.203 C 296.094 295.915,295.696 296.281,293.348 298.730 M97.656 299.326 C 97.656 299.385,99.019 300.748,100.684 302.354 L 103.711 305.273 100.791 302.246 C 98.079 299.434,97.656 299.041,97.656 299.326 M259.656 304.461 C 257.350 306.057,256.801 306.616,258.502 305.637 C 259.814 304.882,262.067 303.147,261.719 303.161 C 261.611 303.165,260.683 303.750,259.656 304.461 M284.570 307.301 C 282.697 309.066,282.451 309.381,283.789 308.299 C 285.642 306.800,287.828 304.667,287.470 304.706 C 287.379 304.716,286.074 305.883,284.570 307.301 M105.078 306.372 C 105.078 306.439,105.649 307.011,106.348 307.642 L 107.617 308.789 106.470 307.520 C 105.400 306.336,105.078 306.070,105.078 306.372 M253.613 308.248 C 252.282 309.101,251.851 309.673,253.027 309.027 C 253.924 308.534,255.328 307.448,255.078 307.441 C 254.971 307.438,254.312 307.801,253.613 308.248 M279.492 311.582 C 278.316 312.633,278.228 312.779,279.136 312.171 C 280.216 311.449,281.574 310.133,281.200 310.171 C 281.120 310.179,280.352 310.814,279.492 311.582 M110.156 310.669 C 110.156 310.736,110.728 311.308,111.426 311.939 L 112.695 313.086 111.548 311.816 C 110.479 310.633,110.156 310.367,110.156 310.669 M243.131 314.286 L 241.602 315.681 243.262 314.416 C 244.779 313.260,245.149 312.891,244.792 312.891 C 244.720 312.891,243.973 313.519,243.131 314.286 M241.004 316.819 C 240.768 317.260,240.632 317.795,240.703 318.007 C 240.774 318.220,241.034 317.858,241.280 317.204 C 241.794 315.845,241.640 315.630,241.004 316.819 M269.922 318.798 C 268.561 319.991,268.560 319.993,269.812 319.160 C 270.504 318.699,271.174 318.155,271.300 317.951 C 271.677 317.341,271.365 317.533,269.922 318.798 M164.868 321.319 C 165.607 322.195,166.290 322.848,166.387 322.771 C 166.483 322.694,165.879 321.977,165.044 321.178 L 163.526 319.727 164.868 321.319 M266.113 321.139 C 264.782 321.991,264.351 322.564,265.527 321.917 C 266.424 321.425,267.828 320.339,267.578 320.332 C 267.471 320.328,266.812 320.692,266.113 321.139 M240.301 322.070 C 240.294 322.500,240.440 323.203,240.625 323.633 C 241.053 324.628,241.053 323.601,240.625 322.266 C 240.374 321.481,240.310 321.442,240.301 322.070 M258.984 325.426 C 258.336 325.956,258.270 326.089,258.789 325.821 C 260.063 325.162,260.770 324.621,260.352 324.624 C 260.137 324.626,259.521 324.986,258.984 325.426 M246.447 329.417 C 246.621 329.590,247.711 329.676,248.870 329.607 L 250.977 329.481 248.553 329.291 C 247.220 329.187,246.272 329.243,246.447 329.417 M164.258 333.475 C 163.184 334.467,162.656 335.090,163.086 334.859 C 163.830 334.459,166.751 331.624,166.385 331.656 C 166.289 331.665,165.332 332.483,164.258 333.475 " stroke="none" fill="#7c7c7c" fill-rule="evenodd"></path></g></svg>